<mxfile host="app.diagrams.net" modified="2022-07-05T13:38:02.044Z" agent="5.0 (Macintosh; Intel Mac OS X 10_15_7) AppleWebKit/537.36 (KHTML, like Gecko) Chrome/103.0.0.0 Safari/537.36" etag="ZKCQnSlELRzLPhwG-Upz" version="20.0.4" type="github">
  <diagram id="O6U22_kPWmjkDFTxN3ls" name="第 1 页">
    <mxGraphModel dx="830" dy="633" grid="1" gridSize="10" guides="1" tooltips="1" connect="1" arrows="1" fold="1" page="1" pageScale="1" pageWidth="827" pageHeight="1169" math="0" shadow="0">
      <root>
        <mxCell id="0" />
        <mxCell id="1" parent="0" />
        <mxCell id="8_R7bOusu-KEbcWFWrqb-3" style="edgeStyle=orthogonalEdgeStyle;rounded=0;orthogonalLoop=1;jettySize=auto;html=1;strokeWidth=2;" edge="1" parent="1" source="8_R7bOusu-KEbcWFWrqb-2">
          <mxGeometry relative="1" as="geometry">
            <mxPoint x="380" y="360" as="targetPoint" />
          </mxGeometry>
        </mxCell>
        <mxCell id="8_R7bOusu-KEbcWFWrqb-2" value="" style="shape=waypoint;sketch=0;fillStyle=solid;size=6;pointerEvents=1;points=[];fillColor=none;resizable=0;rotatable=0;perimeter=centerPerimeter;snapToPoint=1;" vertex="1" parent="1">
          <mxGeometry x="140" y="340" width="40" height="40" as="geometry" />
        </mxCell>
        <mxCell id="8_R7bOusu-KEbcWFWrqb-4" style="edgeStyle=orthogonalEdgeStyle;rounded=0;orthogonalLoop=1;jettySize=auto;html=1;strokeWidth=2;" edge="1" parent="1">
          <mxGeometry relative="1" as="geometry">
            <mxPoint x="761" y="359" as="targetPoint" />
            <mxPoint x="541" y="359" as="sourcePoint" />
          </mxGeometry>
        </mxCell>
        <mxCell id="8_R7bOusu-KEbcWFWrqb-6" value="" style="line;strokeWidth=4;html=1;perimeter=backbonePerimeter;points=[];outlineConnect=0;" vertex="1" parent="1">
          <mxGeometry x="430" y="460" width="68" height="10" as="geometry" />
        </mxCell>
        <mxCell id="8_R7bOusu-KEbcWFWrqb-14" style="rounded=0;orthogonalLoop=1;jettySize=auto;html=1;entryX=0;entryY=0.75;entryDx=0;entryDy=0;dashed=1;fontSize=24;strokeWidth=2;exitX=0.968;exitY=0.011;exitDx=0;exitDy=0;exitPerimeter=0;strokeColor=#FF0000;" edge="1" parent="1">
          <mxGeometry relative="1" as="geometry">
            <mxPoint x="321.1600000000001" y="319.44000000000005" as="sourcePoint" />
            <mxPoint x="395.5" y="269" as="targetPoint" />
          </mxGeometry>
        </mxCell>
        <mxCell id="8_R7bOusu-KEbcWFWrqb-7" value="&lt;font style=&quot;font-size: 24px;&quot;&gt;Producer&lt;/font&gt;" style="text;html=1;align=center;verticalAlign=middle;resizable=0;points=[];autosize=1;strokeColor=none;fillColor=none;" vertex="1" parent="1">
          <mxGeometry x="210" y="320" width="120" height="40" as="geometry" />
        </mxCell>
        <mxCell id="8_R7bOusu-KEbcWFWrqb-15" style="rounded=0;orthogonalLoop=1;jettySize=auto;html=1;dashed=1;fontSize=24;strokeWidth=2;strokeColor=#FF0000;" edge="1" parent="1" source="8_R7bOusu-KEbcWFWrqb-8">
          <mxGeometry relative="1" as="geometry">
            <mxPoint x="540" y="270" as="targetPoint" />
          </mxGeometry>
        </mxCell>
        <mxCell id="8_R7bOusu-KEbcWFWrqb-8" value="&lt;span style=&quot;font-size: 24px;&quot;&gt;Consumer&lt;/span&gt;" style="text;html=1;align=center;verticalAlign=middle;resizable=0;points=[];autosize=1;strokeColor=none;fillColor=none;" vertex="1" parent="1">
          <mxGeometry x="581" y="320" width="130" height="40" as="geometry" />
        </mxCell>
        <mxCell id="8_R7bOusu-KEbcWFWrqb-9" value="" style="endArrow=classic;html=1;rounded=0;fontSize=24;strokeWidth=2;dashed=1;" edge="1" parent="1">
          <mxGeometry width="50" height="50" relative="1" as="geometry">
            <mxPoint x="378" y="360" as="sourcePoint" />
            <mxPoint x="430" y="460" as="targetPoint" />
          </mxGeometry>
        </mxCell>
        <mxCell id="8_R7bOusu-KEbcWFWrqb-10" value="" style="endArrow=classic;html=1;rounded=0;fontSize=24;strokeWidth=2;dashed=1;" edge="1" parent="1">
          <mxGeometry width="50" height="50" relative="1" as="geometry">
            <mxPoint x="498" y="460" as="sourcePoint" />
            <mxPoint x="540" y="360" as="targetPoint" />
          </mxGeometry>
        </mxCell>
        <mxCell id="8_R7bOusu-KEbcWFWrqb-11" value="TCB" style="text;html=1;align=center;verticalAlign=middle;resizable=0;points=[];autosize=1;strokeColor=none;fillColor=none;fontSize=24;" vertex="1" parent="1">
          <mxGeometry x="428" y="470" width="70" height="40" as="geometry" />
        </mxCell>
        <mxCell id="8_R7bOusu-KEbcWFWrqb-13" value="&lt;font color=&quot;#ff0000&quot;&gt;channel&lt;/font&gt;" style="rounded=1;whiteSpace=wrap;html=1;strokeWidth=2;fillWeight=4;hachureGap=8;hachureAngle=45;fillColor=#1ba1e2;sketch=1;fontSize=24;" vertex="1" parent="1">
          <mxGeometry x="400.5" y="240" width="127" height="40" as="geometry" />
        </mxCell>
        <mxCell id="8_R7bOusu-KEbcWFWrqb-16" value="" style="shape=curlyBracket;whiteSpace=wrap;html=1;rounded=1;fontSize=24;fontColor=#FF0000;rotation=-90;strokeWidth=2;" vertex="1" parent="1">
          <mxGeometry x="450" y="227.5" width="20" height="600" as="geometry" />
        </mxCell>
        <mxCell id="8_R7bOusu-KEbcWFWrqb-17" value="single core" style="text;html=1;align=center;verticalAlign=middle;resizable=0;points=[];autosize=1;strokeColor=none;fillColor=none;fontSize=24;fontColor=#FF0000;" vertex="1" parent="1">
          <mxGeometry x="390" y="540" width="140" height="40" as="geometry" />
        </mxCell>
      </root>
    </mxGraphModel>
  </diagram>
</mxfile>
